/* XPM */
static char *xpm_[] = {
/* columns rows colors chars-per-pixel */
"32 32 8 1 ",
"  c black",
". c #272736",
"X c #1B520A",
"o c #323E4F",
"O c #3D6E70",
"+ c #586271",
"@ c #318119",
"# c #F2A65E",
/* pixels */
"OOOOOOO++OOOOOOOOOOOOOOOOOOOOOOO",
"OOooOOOOOOO..OOOOOO..OOOOOOOOOOO",
"OOOOOO        OOOOOOOOOOOOooOOOO",
"OOOOO XXXXXXXX OOOOOooOOOOOOOOOO",
"OOOO X@@@@@@@@X OOOOOOOOOOOO++OO",
"..O X@@@@@@@@@@X OOOOOOOOOOOOOOO",
"OOO X@@@@@@@@@@X OOOOO+++OOOOOOO",
"OOO XX@@@@@@@@XX OOOOOOOOOOO..OO",
"O+O X@XXXXXXXX@X OOOoOOOOOOOOOOO",
"OOO X@@@@@@@@@@X OOOOOOOOOOOOOOO",
"OOO X@@@@@@@@@@X OOOOOOOOOooooOO",
"O.O X@@@@@@@@@@X OOOOOO..OOOOOOO",
"OOO X@@@@@@@@@@X O..OOOOOOOOOOOO",
"OOO X@@@@@@@@@@X OOOOOOOOOOOOOOO",
"OOO X@@@@@@@@@@X OOOOOOOOOO...OO",
"OoO X@@@@@@@@@@X OOOooOOOOOOOOOO",
"OOO X@@@@@@@@@@X OOOOOO++OOOOOOO",
"OOO XX@@@@@@@@@X OOOOOOOOOOOOOOO",
"O+O X@X@@@@@@@@X OOOOOOOOOO...OO",
"O+O X@@XX@@@@XX@X    OOOOOOOOOOO",
"OOO X@@@@XXXX@@@@XXXX   OOOOOOOO",
"OOO X@@@@@@@@@@@@@@@@XXX OOOOOOO",
"O.O X@@@@@@@@@@@@@@@@@@@X OOOooO",
"OOO XX@@@@@@@@@@@@@@@@@@X OOOOOO",
"OOO XXXXXXXXXX@@@@@@@@@@X OOOOOO",
"O+O ##########XXXXXXXXXXX O...OO",
"O+O ######   ############ OOOOOO",
"OOO ###### OO  ## ## ### OOOOOOO",
"OOOO      OOOOO  O  O   OOOO+++O",
"OooOOOOOOOOO..OOOOOOOOOOOOOOOOOO",
"OOOOO..OooOOOOOOOOoOO...OOoooOOO",
"OOOOOOOOOOOOOO++OOOOOOOOOOOOOOOO"
};
