/* XPM */
static char *NINFEA_FIORE1736426665[] = {
/* columns rows colors chars-per-pixel */
"32 32 10 1 ",
"  c #272736",
". c #1B520A",
"X c #25760D",
"o c #322947",
"O c #323E4F",
"+ c #73275C",
"@ c #3D6E70",
"# c #586271",
"$ c #318119",
"% c #FF6B97",
/* pixels */
"@@@@@@@@@@@@@@@@@@@@@@@@@@@@@  @",
"@  @@@@@@@@@@OOO@@@@##@@@@@@@@@@",
"@@@@###@@@@@@@@@@@@@@@@@@  @@@@@",
"@@@@@@@@@@............@@o@@@@@@@",
"@@@@@@@@@.XXXXXXXXXXXX.o%o@OOO@@",
"@@OOO@@@..XXXX$$$$$$XXo%%%o@@@@@",
"@@@@@@@.XXX.XXX$$$$XXoo%%%oo@@#@",
"@  @@@.XXXX..XXX$XXXo++o%o++o@@@",
"@@@@@@.X$$XXX..X$XX.o+++o+++o@@@",
"@@@@@.XX$$$XXX.XXX..Xo++o++o.@@@",
"@@@@.XXXXXX$$X.XXX.XXXo+o+oX.@@@",
"@@@@.XX...XXXXX.X.XXXX.oooXX.@#@",
"@@@@.X.XXX...XXX.XXX..XXX$$X.@@@",
"@##@.XXXXXXXX....XX.XXXX$$$XX.@@",
"@@@@.X$$$$XX.X.......XXXX$$$X.@@",
"@@@@.XX$$XX..X.X..XXX...XXXXX.@@",
"@@@@.XX$XX..XX.XX.XXXXXX..XX.@@@",
"@@@@@.X$XX.XXX.XX.XXXXXXXXXX.@@@",
"@  @@.XXX..XXX..XX...XXXXXXX.@@@",
"@@@@@.XXX.XX$XX.XXX......XXX.@@@",
"@@@@@@.XX.XX$XX.XXX.@@@@....@@@@",
"@OOO@@.XXXX$$$XX.XX..@@@@@@@@##@",
"@@@@@@@.XX$$$$XX.XXX..@@@@@@@@@@",
"@@@@@@@@.XXX$$XX..XXX.@@@OOOO@@@",
"@@@@@@@@..XXXX$XXXXXXX.@@@@@@@@@",
"@@@###@@@@.XXXXXXXXXX..@@@@@@@@@",
"@@@@@@@@@@@....XXXX...@@@@  @@@@",
"@@@@@@@@@@@@@@@.....@@##@@@@@@@@",
"@@@OO@@@@@@@##@@@@@@@@@@@@@@@@@@",
"@@@@@@@@@OO@@@@@OOOO@@@@@@OOO@@@",
"@@   @@@@@@@@@@@@@@@@@  @@@@@@@@",
"@@@@@@@@@@@@@@@@@@@@@@@@@@@@@@@@"
};
