/* XPM */
static char *xpm_[] = {
/* columns rows colors chars-per-pixel */
"32 32 9 1 ",
"  c black",
". c #272736",
"X c #7A1212",
"o c #323E4F",
"O c #3D6E70",
"+ c #586271",
"@ c #606070",
"# c red",
"$ c white",
/* pixels */
"OOOOOOOOOOOOOOOOOOOOOOOOOOOOOOOO",
"OO..OOOOOO++OOOOOOOOOOOOOOOO..OO",
"OOOOOOOOOOOOOOOOOOO..OOOOOOOOOOO",
"OOOOOoooOOOOOOOOOOOOOOOoooOOOOOO",
"++OOOOOOOOOOOOooOOOOOOOOOOOOOOOO",
"OOOOOOOO..OOOOOOOOOOOOOOOOOOOOOO",
"O...OOOOOOOOOOOOOOOOOOO..OOOOOOO",
"OOOOOOOOOO@@@O   O@@@OOOOOOO+++O",
"OOOOOOOOO@$$$@   @$$$@OOOOOOOOOO",
"OOOoOOOOO@$$$@...@$$$@OOOooOOOOO",
"OOOOOOOOO@@$@@...@@$@@OOOOOOOOOO",
"OOOOOOOOO@$@$@   @$@$@OOOOOOOOOO",
"OOOO+++OO@$@$@...@$@$@OOOOOOO..O",
"OOOOOOOOO @$@@...@@$@ OOOOOOOOOO",
"OooOOOOOOOO@@@   @@@OOOO+++OOOOO",
"OOOOOOOOOO   @...@   OOOOOOOOOOO",
"OOOOOO..O OO  ...  OO OOOOOOOOOO",
"OOOOOOOOOOO         OOOOOOOOoooO",
"OOOOoOOOOO OO ... OO OO..OOOOOOO",
"OOOOOOOOOOOO   .   OOOOOOOOOOOOO",
"O++OOOOOOOO X#X X#X OOOOOOOOO++O",
"OOOOOOOO+OO #X# #X# OOOOOOOOOOOO",
"OOOOOOOOOOO X#X X#X OOooOOOOOOOO",
"OOOooooOOOOO   O   OOOOOOOO..OOO",
"OOOOOOOOOOOOOOOOOOOOOOOOOOOOOOOO",
"OOOOOOOOOOOOOOOOOOOOOOOOOOOOOOOO",
"OOO++OOOOO..oOOOoOOOOOOOOOOOOOOO",
"OOOOOOOOOOOOOOOOOOOOOO..OOOOOOOO",
"OOOOoooOOOOOOOOOOOOOOOOOOOOooOOO",
"OOOOOOOOOOOooOOOOO++OOOOOOOOOOOO",
"OO..OOOOOOOOOOOOOOOOOOoOOOOOOOOO",
"OOOOOOOOOOOOOOOOOOOOOOOOOOOO.OOO"
};
