/* XPM */
static char *xpm_[] = {
/* columns rows colors chars-per-pixel */
"32 32 15 1 ",
"  c black",
". c #272736",
"X c #560B17",
"o c #386E17",
"O c #0E432E",
"+ c #323E4F",
"@ c #3D6E70",
"# c #5E5648",
"$ c #586271",
"% c #D47C00",
"& c #478B1E",
"* c #64B732",
"= c #B4D211",
"- c #FEDD00",
"; c white",
/* pixels */
"@@@@@@@@@@@@@@@@@@@@@@..@@@$$@@@",
"@++@@@$$@@@@@+++@@@@@@@@@@@@@@@@",
"@@@@ooooooo@@@@@@@$$@@ooooooo@@@",
"@@oo==;;;==ooooooooooo=;;;;==o..",
"@@oo==;;;==ooooooooooo=;;;;==o@@",
"@@oo--   --oo=======oo-    --o@@",
"..oo--   --oo=======oo-    --o+@",
"@@oo%%---%%oo=======oo%----%%o@@",
"@@oo%%---%%oo=======oo%----%%o@@",
"@@@@       &&*******&&       @@@",
"@@OO**---------------------**O@@",
"$$OO**---------------------**O$$",
"@@OO--%%XXXXXXXXXXXXXXXXX%%--O@@",
"@@OO--%%XXXXXXXXXXXXXXXXX%%--O@@",
"@.OO**---------------------**O@@",
"@@OO**---------------------**O@@",
"@@@@OO                     OO@@@",
"@+@@OO&&&&&**&&&&&&&**&&&&&OO@++",
"@@@@OO&&&&&**&&&&&&&**&&&&&OO@@@",
"@@OO====&oo==oo***oo==o&&====O@@",
"@@OO====&oo==oo***oo==o&&====O..",
"@@OO**==*OO==OO***OO==O**==**O@@",
"$$OO**==*OO==OO***OO==O**==**O@@",
"@@@@OO&&*OO==OO&&&OO==O**&&OO@$$",
"@@OO==**&OO--OO   OO--O&&**==O@@",
"@@OO==**&OO--OO   OO--O&&**==O@@",
"@@OO     --**  ###  **-      O@@",
"@@OO     --**  ###  **-      O@@",
"@@######     #######     #####@@",
"..@#####     ###@@##     ####@@@",
"@@@@++@########@@@@########@@@@@",
"@$@@@@@@@@..@@@@@@@@@@..@@@@@++@"
};
