/* XPM */
static char *xpm_[] = {
/* columns rows colors chars-per-pixel */
"32 32 10 1 ",
"  c #272736",
". c #1B520A",
"X c #25760D",
"o c #323E4F",
"O c #422445",
"+ c #5A265E",
"@ c #3D6E70",
"# c #586271",
"$ c #80366B",
"% c #FF6B97",
/* pixels */
"@@@@@@@@@@@@@@@@@@@@@@@@@@@@@  @",
"@  @@@@@@@@@@ooo@@@@##@@@@@@@@@@",
"@@@@###@@@@@@@@@@@@@@@@@@  @@@@@",
"@@@@@@@@@@............@@@@@@@@@@",
"@@@@@@@@@.XXXXXXXXXXXX..@@@ooo@@",
"@@ooo@@@..XXXXXXXXXXXXXX+.@@@@@@",
"@@@@@@@.XXX.XXXXXXXXX.X+%+.@@@#@",
"@  @@@.XXXX..XXXXXXX.O+%%%+O@@@@",
"@@@@@@.XXXXXX..XXXX.O$O%%%O$O@@@",
"@@@@@.XXXXXXXX.XXX..O$$O%O$$O@@@",
"@@@@.XXXXXXXXX.XXX.XXO$$O$$O.@@@",
"@@@@.XX...XXXXX.X.XXXXOOOOOX.@#@",
"@@@@.X.XXX...XXX.XXX......XX.@@@",
"@##@.XXXXXXXX....XX.XXXXXXXXX.@@",
"@@@@.XXXXXXX.X.......XXXXXXXX.@@",
"@@@@.XXXXXX..X.X..XXX...XXXXX.@@",
"@@@@.XXXXX..XX.XX.XXXXXX..XX.@@@",
"@@@@@.XXXX.XXX.XX.XXXXXXXXXX.@@@",
"@  @@.XXX..XXX..XX...XXXXXXX.@@@",
"@@@@@.XXX.XXXXX.XXX......XXX.@@@",
"@@@@@@.XX.XXXXX.XXX.@@@@....@@@@",
"@ooo@@.XXXXXXXXX.XX..@@@@@@@@##@",
"@@@@@@@.XXXXXXXX.XXX..@@@@@@@@@@",
"@@@@@@@@.XXXXXXX..XXX.@@@oooo@@@",
"@@@@@@@@..XXXXXXXXXXXX.@@@@@@@@@",
"@@@###@@@@.XXXXXXXXXX..@@@@@@@@@",
"@@@@@@@@@@@....XXXX...@@@@  @@@@",
"@@@@@@@@@@@@@@@.....@@##@@@@@@@@",
"@@@oo@@@@@@@##@@@@@@@@@@@@@@@@@@",
"@@@@@@@@@oo@@@@@oooo@@@@@@ooo@@@",
"@@   @@@@@@@@@@@@@@@@@  @@@@@@@@",
"@@@@@@@@@@@@@@@@@@@@@@@@@@@@@@@@"
};
