/* XPM */
static char *MOSCA_11736426665[] = {
/* columns rows colors chars-per-pixel */
"32 32 9 1 ",
"  c black",
". c #272736",
"X c #7A1212",
"o c #323E4F",
"O c #3D6E70",
"+ c #586271",
"@ c #606070",
"# c red",
"$ c white",
/* pixels */
"OOO...OOOOOOOOOOOOOOOOOOOOOO..OO",
"OOOOOOOOO+++OOOOOOOOOOOOOOOOOOOO",
"OOoooOOOOOOOOOOOOOOOO+++OOOOOOOO",
"OOOOOOOOOOOOOOoooOOOOOOOOOooOOOO",
".OOOOOOOOOOOOOOOOOOOOOOOOOOOOOO.",
"OOO++OOOOOOO...OOOOOOooOOOOOOOOO",
"OOOOOOOooOOOOOOOOOOOOOOOOOO..OO+",
"OOOOOOOOOO@@@O   O@@@OOOOOOOOOOO",
"O..OOOOOO@$$$@   @$$$@OOOOOOOOOO",
"OOOOOOOOO@$$$@...@$$$@OOOooOOOOO",
"OO+++OOOO@@$@@...@@$@@OOOOOOOOO.",
"OOOOOOOOO@$@$@   @$@$@OOOOOOOOOO",
"OOOO..OOO@$@$@...@$@$@oooOOO++OO",
"ooOOOOOOO @$@@...@@$@ OOOOOOOOOo",
"OOOOOOOO oo@@@   @@@OO OOOOOOOOO",
"O+++OOOOOO   @...@   OOOOO...OOO",
"OOOOOOOOO OO  ...  OO OOOOOOOOOO",
"OOO...OOOOO         OOOOO+++OOOO",
"OOOOOOOOOO ++ ... oo OOOOOOOOOOO",
"OOOOOOOOOOOO   .   OOOOOOOOOOOO+",
"OO+++OOOOOO X#X X#X OOOOOOoOOOOO",
"OOOOOoooOOO #X# #X# OO..OOOOOOOO",
".OOOOOOOOOO X#X X#X OOOOOOOOOOO.",
"OOOOOOOOOOOO   o   OOO+++OOO...O",
"OOOOO+++OOOOOOOOOOOOOOOOOOOOOOOO",
"+OOOOOOOOOO...OOOOOOOOOOOOOOOOOO",
"OOOOOOOOOOOOO     OOOOOOOOOOOO++",
"OOOOOoooOOOO       O....OOOOOOOO",
"OOOOOOOOOOOO       OOOOOOOoooOOO",
"OOO...OOOOOOO     OOOOOOOOOOOOOO",
"oOOOOOOO+++OOOOOOOOOOOOOOOO++OOo",
"OOOOOOOOOOOOOOoooOOOO...OOOOOOOO"
};
