/* XPM */
static char *NINFEA1736426665[] = {
/* columns rows colors chars-per-pixel */
"32 32 7 1 ",
"  c #272736",
". c #1B520A",
"X c #25760D",
"o c #323E4F",
"O c #3D6E70",
"+ c #586271",
"@ c #318119",
/* pixels */
"OOOOOOOOOOOOOOOOOOOOOOOOOOOOO  O",
"O  OOOOOOOOOOoooOOOO++OOOOOOOOOO",
"OOOO+++OOOOOOOOOOOOOOOOOO  OOOOO",
"OOOOOOOOOO............OOOOOOOOOO",
"OOOOOOOOO.XXXXXXXXXXXX..OOOoooOO",
"OOoooOOO..XXXX@@@@@@XXXXX.OOOOOO",
"OOOOOOO.XXX.XXX@@@@XX.XXXX.OOO+O",
"O  OOO.XXXX..XXX@XXX.XX@XXX.OOOO",
"OOOOOO.X@@XXX..X@XX.XX@XXXXX.OOO",
"OOOOO.XX@@@XXX.XXX..X@XXX.XX.OOO",
"OOOO.XXXXXX@@X.XXX.XXXX..XXX.OOO",
"OOOO.XX...XXXXX.X.XXXX.XXXXX.O+O",
"OOOO.X.XXX...XXX.XXX..XXX@@X.OOO",
"O++O.XXXXXXXX....XX.XXXX@@@XX.OO",
"OOOO.X@@@@XX.X.......XXXX@@@X.OO",
"OOOO.XX@@XX..X.X..XXX...XXXXX.OO",
"OOOO.XX@XX..XX.XX.XXXXXX..XX.OOO",
"OOOOO.X@XX.XXX.XX.XXXXXXXXXX.OOO",
"O  OO.XXX..XXX..XX...XXXXXXX.OOO",
"OOOOO.XXX.XX@XX.XXX......XXX.OOO",
"OOOOOO.XX.XX@XX.XXX.OOOO....OOOO",
"OoooOO.XXXX@@@XX.XX..OOOOOOOO++O",
"OOOOOOO.XX@@@@XX.XXX..OOOOOOOOOO",
"OOOOOOOO.XXX@@XX..XXX.OOOooooOOO",
"OOOOOOOO..XXXX@XXXXXXX.OOOOOOOOO",
"OOO+++OOOO.XXXXXXXXXX..OOOOOOOOO",
"OOOOOOOOOOO....XXXX...OOOO  OOOO",
"OOOOOOOOOOOOOOO.....OO++OOOOOOOO",
"OOOooOOOOOOO++OOOOOOOOOOOOOOOOOO",
"OOOOOOOOOooOOOOOooooOOOOOOoooOOO",
"OO   OOOOOOOOOOOOOOOOO  OOOOOOOO",
"OOOOOOOOOOOOOOOOOOOOOOOOOOOOOOOO"
};
