/* XPM */
static char *PORTALE_11736426664[] = {
/* columns rows colors chars-per-pixel */
"32 32 10 1 ",
"  c #272736",
". c #1B520A",
"X c #323E4F",
"o c #3D6E70",
"O c #586271",
"+ c #318119",
"@ c #4A9732",
"# c #60DE3A",
"$ c #A3F989",
"% c #B9FCA5",
/* pixels */
"ooo   oooooooooooooooooooooo  oo",
"oooooooooOOOoooooooooooooooooooo",
"ooXXXoooooooooo...oooOOOoooooooo",
"ooooooooo......$%%...oooooXXoooo",
" oooooo...#%%%%%$$%%%.ooooooooo ",
"oooOO....#####%%%%$$%#..oooooooo",
"oooo..####@@######%%$%#@..o  ooO",
"oooo.##@@@@@@@@@###%$%##@..ooooo",
"o  ..#@@+@@@@@@+@@##%$%##@.ooooo",
"oo...#@+@@####@@+@@#%$%##@@.oooo",
"oo.##@@@@##%%##@@+@##%$%#@@..oo ",
"oo.##@+@##%%%%##@@@##%$%##@+.ooo",
"oo.##@+@#%%##%%##@@##%$%##@+.Ooo",
"XX.##@+@#%####%##@@##%$%##@+@.oX",
"oo..#@+@#%##@####@@##%$%#@@+@.oo",
"oO..#@+@#%##@@#@@@@##%$%#@@+@.oo",
"oo.##@@@#%%##@@@@@###%%##@@+@.oo",
"oo.###@@##%%#########%%##@@+@.oo",
"oo.###@@##%$%#######%%%#@@++@.oo",
"oo..##@@@##%$$%####%$%##@@+@@.oO",
"oo...#@+@@##%$%%%%%$$%#@@@+@@.oo",
"ooo..#@@+@@###%%$$$$%##@@+@@@.oo",
" oo..##@+@@@@###%%%###@@++@@#.o ",
"ooo.###@@+++@@@#####@@@++@@##. o",
"oooo.###@@@@+@@@@@@@@@+@@@@#.ooo",
"Ooooo.#..#@@@+++++++++@@@##.oooo",
"oooooo...###@@@@@@@@@@@@##..ooOO",
"oooooXXX..###############..ooooo",
"oooooooooo...##.####..##.oXXXooo",
"ooo   ooooooo...........oooooooo",
"XoooooooOOOooooooooooooooooOOooX",
"ooooooooooooooXXXoooo   oooooooo"
};
