/* XPM */
static char *PORTALE_41736426664[] = {
/* columns rows colors chars-per-pixel */
"32 32 10 1 ",
"  c #272736",
". c #1B520A",
"X c #323E4F",
"o c #3D6E70",
"O c #586271",
"+ c #318119",
"@ c #4A9732",
"# c #60DE3A",
"$ c #A3F989",
"% c #B9FCA5",
/* pixels */
"ooo   oooooooooooooooooooooo  oo",
"oooooooooOOOoooooooooooooooooooo",
"ooXXXoooooo............Ooooooooo",
"oooooooo.....###..####..ooXXoooo",
" oooooo.#...##########....ooooo ",
"oooOOo.########@@@@@@@###..ooooo",
"ooooo.####@@@@@@+++++@@@##.  ooO",
"ooooo..#@@@+@@@@@@@@@@+@@#..oooo",
"o  o...@@++@@########@@+@#..oooo",
"oooo.##@+@@@###%%%%%##@@@##..ooo",
"ooO.##@@+@@##%%%###%%##@@@##.oo ",
"ooo.##@@+@##$$%#####%%#@@@#%.ooo",
"ooo.#@@+@@#$$$##@@##%%#@@##%.Ooo",
"XX.##@+@@##$$##@@##%%##@@##%.ooX",
"oo.##@+@@#%%%##@##%%##@@@#%%.ooo",
"oO..#@+@##%%###@@####@@+@#%%$.oo",
"oo.##@+@#%$%###@@###@@+@##%$%.oo",
"oo.##@+@#%$%###@@@@@@+@@##%$%.oo",
"oo.##@+@#%$%####@@@@@@@##%$%.ooo",
"oo.##@+@##$$$###########%%$%.ooO",
"oo..#@+@@#$$$%########%%$$%%.ooo",
"oo..#@+@@##%%%%%%%%%%%$$%%#.oooo",
" o.##@@+@@###%%%$$$$$$%%##.oooo ",
"oo.##@@@+@@@####%%%%%%###@.o   o",
"ooo.##@@++@@@@##########@.oooooo",
"Oooo.##@@++@@@@@@@###@@@..oooooo",
"oooo..#@@@@+++@@@@@@@@@..oooooOO",
"ooooo..##@@@@++++++++.. oooooooo",
"ooooooo.##@@@@@@@@@...ooooXXXooo",
"ooo   oo...........ooooooooooooo",
"XoooooooOOOooooooooooooooooOOooX",
"ooooooooooooooXXXoooo   oooooooo"
};
