/* XPM */
static char *xpm_[] = {
/* columns rows colors chars-per-pixel */
"32 32 10 1 ",
"  c #272736",
". c #1B520A",
"X c #323E4F",
"o c #3D6E70",
"O c #586271",
"+ c #318119",
"@ c #4A9732",
"# c #60DE3A",
"$ c #A3F989",
"% c #B9FCA5",
/* pixels */
" ooooooooooooooooooooXXooooooooo",
"ooOOoo o...........oooooo  ooooo",
"ooooooo.##..####.##...oooooooooo",
"ooooo..###############..oooooooo",
"oXoo..##@@@@@@@@@@@@###...ooOOOo",
"oooo.##@@@+++++++++@@@#..#.ooooo",
"ooo.#@@@@+@@@@@@@@@+@@@@###.ooXX",
"oo.##@@++@@@#####@@@+++@@###.ooo",
"oo.#@@++@@###%%%###@@@@+@##..ooo",
"oo.@@@+@@##%$$$$%%###@@+@@#...o ",
"oo.@@+@@@#%$$%%%%%$%##@@+@#...oo",
"oo.@@+@@##%$%####%$$%##@@@##..oo",
"Xo.@++@@#%%%#######%$%##@@###.oo",
"oo.@+@@##%%#########%%##@@###.oo",
"oo.@+@@##%%###@@@@@##%%#@@@##.oo",
"o .@+@@#%$%##@@@@#@@##%#@+@#.. o",
"oo.@+@@#%$%##@@####@##%#@+@#..oo",
"oo.@+@##%$%##@@##%####%#@+@##.oo",
"ooo.+@##%$%##@@##%%##%%#@+@##.oo",
"ooo.+@##%$%##@@@##%%%%##@+@##.oo",
"OOo..@@#%$%##@+@@##%%##@@@@##.oo",
"oooo.@@##%$%#@@+@@####@@+@#...oo",
"ooooo.@##%$%##@@+@@@@@@+@@#..ooo",
"o  oo..@##%$%###@@@@@@@@@##.oXXo",
"oooooo..@#%$%%######@@####..oooo",
"oooooooo..#%$$%%%%#####....ooooo",
"ooOOOoooo..%%%$$%%%%%#...ooooooo",
"ooooooooooo...%%$......ooooOOooo",
"oooooooo  oooo...oooooooooooo  o",
"ooXXoooooooooooooooOOooooooooooo",
"ooooooOOooooooo  ooooooXXoooOOoo",
"oooooooooooooooooooooooooooooooo"
};
