/* XPM */
static char *PORTALE_CHIUSO1736426664[] = {
/* columns rows colors chars-per-pixel */
"32 32 7 1 ",
"  c #272736",
". c #1B520A",
"X c #323E4F",
"o c #3D6E70",
"O c #586271",
"+ c #318119",
"@ c #A3F989",
/* pixels */
"ooo   oooooooooooooooooooooo  oo",
"oooooooooOOOoooooooooooooooooooo",
"ooXXXooooooooooooooooOOOoooooooo",
"ooooooooooooooXXXoooooooooXXoooo",
" oooooooooooooooooooooooooooooo ",
"oooOOooooooo   ooooooXXooooooooo",
"oooooooXXoooooooooooooooooo  ooO",
"oooooooooooooooooooooooooooooooo",
"o  ooooooooooooooo    oooooooooo",
"ooooooooooooOOOooooooooooXXooooo",
"ooOOOoooooooooooooooooooooooooo ",
"ooooooooooooooo...oooooooooooooo",
"oooo  ooooooo...+..ooXXXXoooOOoo",
"XXoooooooooo..++++..oooooooooooX",
"ooooooooXXXo.++@@++..ooooooooooo",
"oOOOoooooooo.+++@@+..ooooo   ooo",
"oooooooooooo..+++++..ooooooooooo",
"ooo   ooooooo..+++..oooooOOOoooo",
"oooooooooooOOo.....XXooooooooooo",
"oooooooooooooooooooooooooooooooO",
"ooOOOoooooooooooooooooooooXooooo",
"oooooXXXoooooooooooooo  oooooooo",
" oooooooooooooooooooooooooooooo ",
"ooooooooooooooXXXoooooOOOooo   o",
"oooooOOOoooooooooooooooooooooooo",
"Ooooooooooo   oooooooooooooooooo",
"ooooooooooooooooooooooooooooooOO",
"oooooXXXooooooOOOOoo    oooooooo",
"ooooooooooooooooooooooooooXXXooo",
"ooo   oooooooooooooooooooooooooo",
"XoooooooOOOooooooooooooooooOOooX",
"ooooooooooooooXXXoooo   oooooooo"
};
