/* XPM */
static char *PORTALE_21736426664[] = {
/* columns rows colors chars-per-pixel */
"32 32 10 1 ",
"  c #272736",
". c #1B520A",
"X c #323E4F",
"o c #3D6E70",
"O c #586271",
"+ c #318119",
"@ c #4A9732",
"# c #60DE3A",
"$ c #A3F989",
"% c #B9FCA5",
/* pixels */
"ooo   oooooooooooooooooooooo  oo",
"oooooooooOOOoooooooooooooooooooo",
"ooXXXoooooooo...........oooooooo",
"oooooooooo...@@@@@@@@@##.oXXoooo",
" oooooooo..++++++++@@@@##..oooo ",
"oooOOoo..@@@@@@@@@+++@@@@#..oooo",
"oooooo..@@@###@@@@@@@++@@##. ooO",
"oooooo.@##########@@@@++@@##.ooo",
"o  oo.@###%%%%%%####@@@+@@@##.oo",
"ooooo.##%%$$$$$$%%%###@@+@@##.oo",
"ooOO.#%%$$%%%%%%%%%%%##@@+@#..o ",
"ooo.%%$$%%########%$$$#@@+@#..oo",
"ooo.%$%%###########$$$##@+@##.oo",
"XXo.%$%##@@@@@@@####%$%#@+@##.oX",
"oo.%$%##@@+@@@@@@###%$%#@+@##.oo",
"oO.%$%##@+@@###@@###%$%#@+@##.oo",
"oo.$%%#@+@@####@@###%%##@+@#..oo",
"ooo.%%#@@@##%%##@##%%%#@@+@##.oo",
"ooo.%##@@##%%##@@##$$##@@+@##.oo",
"ooo.%##@@#%%##@@##$$$#@@+@@#.ooO",
"ooO.%#@@@#%%#####%$$##@+@@##.ooo",
"ooo.##@@@##%%###%%%##@@+@@##.ooo",
" oo..##@@@##%%%%%###@@@+@##.ooo ",
"oooo..#@+@@########@@++@@...   o",
"oooo..#@@+@@@@@@@@@@+@@@#..ooooo",
"Ooooo.##@@@+++++@@@@@@####.ooooo",
"ooooo..###@@@@@@@########.ooooOO",
"oooooX....##########...#.ooooooo",
"oooooooo..####..###.....ooXXXooo",
"ooo   ooo............ooooooooooo",
"XoooooooOOOooooooooooooooooOOooX",
"ooooooooooooooXXXoooo   oooooooo"
};
