/* XPM */
static char *SASSO1736426663[] = {
/* columns rows colors chars-per-pixel */
"32 32 9 1 ",
"  c #272736",
". c #323E4F",
"X c #3D6E70",
"o c #43434F",
"O c #4A4A54",
"+ c #5E5E65",
"@ c #586271",
"# c #6C6C82",
"$ c #8E8E9B",
/* pixels */
"XXX   XXXXXXXXXXXXXXXXXXXXXX  XX",
"XXXXXXXXX@@@XXXXXXXXXXXXXXXXXXXX",
"XX...XXXXXXXXXXXXXXXX@@@XXXXXXXX",
"XXXXXXXXXXXXXX...XXXXXXXXX..XXXX",
" XXXXXXXXXXXXXXXXXXXXXXXXXXXXXX ",
"XXX@@XXXXXXX   XXXXXX..XXXXXXXXX",
"XXXXXXX..XXXXXXXXXXXXXXXXXX  XX@",
"XXXXXXXXXXXXXXXXXXXXXXXXXXXXXXXX",
"X  XXXXXXXXXXXXXX..XXXXXXXXXXXXX",
"XXXXXXXXXXXX@@@XXXXXXXXXX..XXXXX",
"XX@@@XXXXXXXXXXXXXXXXXXXXXXXXXX ",
"XXXXXXXXXXXXXXXXXXXXXXXXXXXXXXXX",
"XXXX  XXXXXXXoooooooXXXX.XXX@@XX",
"..XXXXXXXXXooo$$$$#oooXXXXXXXXX.",
"XXXXXXXXXoo$$$$$$##++ooXXXXXXXXX",
"X@@@XXXXoo$$$$$####+++ooXX   XXX",
"XXXXXXXXo$$#######+++++ooXXXXXXX",
"XXX   Xoo$######++++++++o@@@XXXX",
"XXXXXXXo$#####++++++++++oXXXXXXX",
"XXXXXXXo####++++++++++++oXXXXXX@",
"XX@@@XXoo++++++++++++++ooX.XXXXX",
"XXXXX...o+++++++++++++ooXXXXXXXX",
" XXXXXXXo+++++++++++++oXXXXXXXX ",
"XXXXXXXXXooooooo++++ooOOOOXX   X",
"XXXXX@@@XXXOOOOoooooOOOOOOOOXXXX",
"@XXXXXXXXXX   OOOOOOOOOOOOOOOXXX",
"XXXXXXXXXXXXXXXXOOOOOOOOOOOOOX@@",
"XXXXX...XXXXXX@@OOOOOOOOOOOOOXXX",
"XXXXXXXXXXXXXXXXXXXOOOOOOOOO.XXX",
"XXX   XXXXXXXXXXXXXXXXXOOXXXXXXX",
".XXXXXXX@@@XXXXXXXXXXXXXXXX@@XX.",
"XXXXXXXXXXXXXX...XXXX   XXXXXXXX"
};
