/* XPM */
static char *xpm_[] = {
/* columns rows colors chars-per-pixel */
"32 32 4 1 ",
"  c #272736",
". c #323E4F",
"X c #3D6E70",
"o c #586271",
/* pixels */
"XXXXXXXXXXXXXXXXXXXXXXXXXXXXXXXX",
"XXXXXXXXXoooXXXXXXXXXXXXXXXXXXXX",
"XX...XXXXXXXXXXXXXXXXoooXXXXXXXX",
"XXXXXXXXXXXXXX...XXXXXXXXXXXXXXX",
"XXXXXXXXXXXXXXXXXXXXXXXXXXXXXXXX",
"XXXooXXXXXXX   XXXXXX..XXXXXXXXX",
"XXXXXXX..XXXXXXXXXXXXXXXXXX  XXX",
"XXXXXXXXXXXXXXXXXXXXXXXXXXXXXXXX",
"X  XXXXXXXXXXXXXXX    XXXXXXXXXX",
"XXXXXXXXXXXXoooXXXXXXXXXX..XXXXX",
"XXoooXXXXXXXXXXXXXXXXXXXXXXXXXXX",
"XXXXXXXXXXXXXXXXXXXXXXXXXXXXXXXX",
"XXXX  XXXXXXXX   XXXX....XXXooXX",
"XXXXXXXXXXXXXXXXXXXXXXXXXXXXXXXX",
"XXXXXXXX...XXXXXXXXXXXXXXXXXXXXX",
"XoooXXXXXXXXXXXooooXXXXXXX   XXX",
"XXXXXXXXXXXXXXXXXXXXXXXXXXXXXXXX",
"XXX   XXXXXXXXXXXXXXXXXXXoooXXXX",
"XXXXXXXXXXXooXXXXX...XXXXXXXXXXX",
"XXXXXXXXXXXXXXXXXXXXXXXXXXXXXXXX",
"XXoooXXXXXXXXXXXXXXXXXXXXX.XXXXX",
"XXXXX...XXXXXXXXXXXXXX  XXXXXXXX",
"XXXXXXXXXXXXXXXXXXXXXXXXXXXXXXXX",
"XXXXXXXXXXXXXX...XXXXXoooXXX   X",
"XXXXXoooXXXXXXXXXXXXXXXXXXXXXXXX",
"XXXXXXXXXXX   XXXXXXXXXXXXXXXXXX",
"XXXXXXXXXXXXXXXXXXXXXXXXXXXXXXXX",
"XXXXX...XXXXXXooooXX    XXXXXXXX",
"XXXXXXXXXXXXXXXXXXXXXXXXXX...XXX",
"XXX   XXXXXXXXXXXXXXXXXXXXXXXXXX",
"XXXXXXXXoooXXXXXXXXXXXXXXXXooXXX",
"XXXXXXXXXXXXXXXXXXXXXXXXXXXXXXXX"
};
