/* XPM */
static char *MOSCA_21736426665[] = {
/* columns rows colors chars-per-pixel */
"32 32 9 1 ",
"  c black",
". c #272736",
"X c #7A1212",
"o c #323E4F",
"O c #3D6E70",
"+ c #586271",
"@ c #606070",
"# c red",
"$ c white",
/* pixels */
"OOO...OOOOOOOOOOOOOOOOOOOOOO..OO",
"OOOOOOOOO+++OOOOOOOOOOOOOOOOOOOO",
"OOoooOOOOOOOOOOOOOOOO+++OOOOOOOO",
"OOOOOOOOOOOOOOoooOOOOOOOOOooOOOO",
".OOOOOOOOOOOOOOOOOOOOOOOOOOOOOO.",
"OOO++OOOOOOOOO   OOOOooOOOOOOOOO",
"OOOOOOOooOOOO     OOOOOOOOO..OO+",
"OOOOOOOOOOOOO ... OOOOOOOOOOOOOO",
"O..OOOOOOOOOO ... OOOOOOOOOOOOOO",
"OOOOOOOOOO  O     O  OOOOooOOOOO",
"OO+++OO@@@@@  ...  @@@@@OOOOOOO.",
"OOOOOO@$$@$$@ ... @$$@$$@OOOOOOO",
"OOOO..@$$$@@$@   @$@@$$$@OOO++OO",
"ooOOOO@$$@$$@@@.@@@$$@$$@OOOOOOo",
"OOOOOOO@@@@@  ... @@@@@@OOOOOOOO",
"O+++OOOOOOO         OOOOOO...OOO",
"OOOOOOOOOO OO ... OO OOOOOOOOOOO",
"OOO...OOOOOO   .   OOOOOO+++OOOO",
"OOOOOOOOOOO X#X X#X oOOOOOOOOOOO",
"OOOOOOOOOOO #X# #X# OOOOOOOOOOO+",
"OO+++OOOOOO X#X X#X OOOOOOoOOOOO",
"OOOOOoooOOOO   O   OOO..OOOOOOOO",
".OOOOOOOOOOOOOOOOOOOOOOOOOOOOOO.",
"OOOOOOOOOOOOOOoooOOOOO+++OOO...O",
"OOOOO+++OOOOOOOOOOOOOOOOOOOOOOOO",
"+OOOOOOOOOO..     OOOOOOOOOOOOOO",
"OOOOOOOOOOOO       OOOOOOOOOOO++",
"OOOOOoooOOO         ....OOOOOOOO",
"OOOOOOOOOOO         OOOOOOoooOOO",
"OOO...OOOOOO       OOOOOOOOOOOOO",
"oOOOOOOO+++OO     OOOOOOOOO++OOo",
"OOOOOOOOOOOOOOoooOOOO...OOOOOOOO"
};
