/* XPM */
static char *PORTALE_31736426664[] = {
/* columns rows colors chars-per-pixel */
"32 32 10 1 ",
"  c #272736",
". c #1B520A",
"X c #323E4F",
"o c #3D6E70",
"O c #586271",
"+ c #318119",
"@ c #4A9732",
"# c #60DE3A",
"$ c #A3F989",
"% c #B9FCA5",
/* pixels */
"ooo   oooooooooooooooooooooo  oo",
"oooooooooOOOoooooooooooooooooooo",
"ooXXXooo...........ooOOOoooooooo",
"ooooooo.##..####.##...ooooXXoooo",
" oooo..###############..ooooooo ",
"oooO..##@@@@@@@@@@@@###...oooooo",
"oooo.##@@@+++++++++@@@#..#.  ooO",
"ooo.#@@@@+@@@@@@@@@+@@@@###.oooo",
"o .##@@++@@@#####@@@+++@@###.ooo",
"oo.#@@++@@###%%%###@@@@+@##..ooo",
"oo.@@@+@@##$$$$$%%###@@+@@#..oo ",
"oo.@@+@@@#%$$%%%%%$$##@@+@#...oo",
"oo.@@+@@##%$$####%$$$##@@@##..oo",
"XX.@++@@#%%%#######$$%##@@###.oX",
"oo.@+@@##%%#########%%##@@###.oo",
"oO.@+@@##%%###@@@@@##%%#@@@##.oo",
"oo.@+@@#%$%##@@@@#@@##%#@+@#..oo",
"oo.@+@@#%$%##@@####@##%#@+@#..oo",
"oo.@+@##%$%##@@##%####%#@+@##.oo",
"ooo.+@##%$%##@@##%%##%%#@+@##.oO",
"ooO.+@##%$%##@@@##%%%%##@+@##.oo",
"ooo..@@#%$%##@+@@##%%##@@@@##.oo",
" ooo.@@##%$%#@@+@@####@@+@#...o ",
"ooooo.@##%$%##@@+@@@@@@+@@#..  o",
"ooooo..@##%$%###@@@@@@@@@##.oooo",
"Oooooo..@#%$%%######@@####..oooo",
"oooooooo..#%$$%%%%#####....oooOO",
"oooooXXXoo.%%%$$%%%%%#...ooooooo",
"ooooooooooo...%%$......oooXXXooo",
"ooo   oooooooo...ooooooooooooooo",
"XoooooooOOOooooooooooooooooOOooX",
"ooooooooooooooXXXoooo   oooooooo"
};
